<svg width="41" height="41" viewBox="0 0 41 41" fill="none" xmlns="http://www.w3.org/2000/svg">
<path d="M23.503 0.320068C22.3367 0.320068 21.3071 0.771229 20.5001 1.63031C19.6931 0.771229 18.6635 0.320068 17.4972 0.320068C15.1397 0.320068 13.2931 2.16939 13.2931 4.53026C13.2931 7.02685 15.3527 8.63154 18.2033 10.8525C18.6974 11.2374 19.2082 11.6354 19.7498 12.0686C19.9691 12.2441 20.2346 12.3319 20.5001 12.3319C20.7656 12.3319 21.0311 12.2441 21.2504 12.0686C21.792 11.6354 22.3028 11.2374 22.7969 10.8525C25.6475 8.63154 27.7071 7.02685 27.7071 4.53026C27.7071 2.16939 25.8604 0.320068 23.503 0.320068Z" fill="#20212B"/>
<path d="M0.064568 22.5581C0.186527 22.9124 0.465759 23.1904 0.821146 23.3076L14.154 27.324C14.6635 27.4955 15.2313 27.3046 15.5335 26.8513L18.9564 21.7158C19.164 21.4038 19.2145 21.0132 19.0936 20.6601C18.9717 20.3058 18.6924 20.0278 18.337 19.9105L5.00419 15.8941C4.4892 15.7193 3.92618 15.9141 3.62468 16.3668L0.201822 21.5023C-0.00582063 21.8144 -0.0562699 22.205 0.064568 22.5581Z" fill="#20212B"/>
<path d="M40.9355 22.5581C41.0564 22.205 41.0059 21.8144 40.7983 21.5023L37.3754 16.3668C37.0739 15.9141 36.5109 15.7193 35.9959 15.8941L22.6631 19.9105C22.3077 20.0279 22.0284 20.3059 21.9065 20.6601C21.7856 21.0131 21.8361 21.4038 22.0437 21.7158L25.4666 26.8513C25.7688 27.3047 26.3366 27.4956 26.8461 27.324L40.179 23.3076C40.5343 23.1903 40.8135 22.9124 40.9355 22.5581Z" fill="#20212B"/>
<path d="M19.2989 25.5339L17.5323 28.184C16.6198 29.5487 14.9202 30.1166 13.3881 29.601L4.80472 27.0249V35.0093C4.80472 35.5266 5.13552 35.9853 5.62584 36.1484L19.2989 40.6793V25.5339H19.2989Z" fill="#20212B"/>
<path d="M36.1954 35.0094V27.025L27.5429 29.6234C26.1735 30.0888 24.418 29.6049 23.469 28.1864L21.7012 25.5339V40.6794L35.3743 36.1485C35.8646 35.9854 36.1954 35.5267 36.1954 35.0094Z" fill="#20212B"/>
<path d="M26.2092 11.2043C25.612 11.7041 24.9645 12.2089 24.2735 12.7472C23.7865 13.1266 23.2832 13.5187 22.751 13.9445C22.1146 14.4536 21.3151 14.734 20.5 14.734C19.6849 14.734 18.8855 14.4536 18.2489 13.9444C17.7168 13.5188 15.3882 11.7041 14.7909 11.2043L6.66516 13.8892L19.0338 17.6116C19.6007 17.798 20.0967 18.1083 20.4975 18.5053C20.8913 18.111 21.3728 17.8063 21.91 17.6293L34.3322 13.8883L26.2092 11.2043Z" fill="#20212B"/>
</svg>
