<svg width="25" height="26" viewBox="0 0 25 26" fill="none" xmlns="http://www.w3.org/2000/svg">
<path d="M23.7184 19.7499L20.9903 24.1187C20.6987 24.6216 20.2202 24.9889 19.659 25.1406C19.3399 25.2158 19.0066 25.2061 18.6924 25.1123C18.3782 25.0186 18.0941 24.8441 17.8684 24.6062C17.4636 24.1751 17.1856 23.6407 17.0649 23.0618C16.9441 22.4829 16.9853 21.8819 17.184 21.3249C17.2495 21.1129 17.3441 20.9109 17.4653 20.7249L19.0028 18.2593L19.9403 16.7874L20.2215 16.3468C20.4244 16.013 20.7081 15.7357 21.0465 15.5406C21.4086 15.3272 21.8319 15.2418 22.2485 15.2979C22.665 15.354 23.0506 15.5484 23.3434 15.8499C23.8388 16.3546 24.1379 17.0195 24.1871 17.7249C24.2511 18.4327 24.0868 19.1423 23.7184 19.7499ZM19.0309 15.2124L16.2184 19.6749L15.7965 20.6124V20.7343C15.0222 20.2866 14.3642 19.6629 13.8756 18.9137C13.387 18.1645 13.0816 17.3109 12.984 16.4218C12.8484 15.0178 12.5912 13.6282 12.2153 12.2687C11.8393 13.6282 11.5821 15.0178 11.4465 16.4218C11.3489 17.3109 11.0435 18.1645 10.5549 18.9137C10.0663 19.6629 9.40828 20.2866 8.63401 20.7343V20.6124L8.21213 19.6749L5.39963 15.2124C5.19027 14.8589 4.92422 14.5422 4.61213 14.2749C5.0523 13.6412 5.33511 12.9117 5.43713 12.1468C5.64056 10.7186 6.11127 9.3414 6.82463 8.08744L7.76213 6.46556L9.57151 3.38119L10.2746 2.18119C10.4805 1.76956 10.7458 1.3905 11.0621 1.05619C11.1306 0.982115 11.2131 0.92241 11.3048 0.880559C11.3966 0.838709 11.4957 0.815552 11.5965 0.81244C11.73 0.845831 11.8534 0.911015 11.9563 1.00243C12.0591 1.09385 12.1383 1.20879 12.1871 1.33744C12.2359 1.20879 12.3152 1.09385 12.418 1.00243C12.5208 0.911015 12.6443 0.845831 12.7778 0.81244C12.8857 0.807893 12.9935 0.826448 13.0937 0.866867C13.1939 0.907285 13.2844 0.968635 13.359 1.04682C13.6694 1.38524 13.9285 1.76745 14.1278 2.18119L14.8121 3.38119L16.6309 6.43744L17.5684 8.05931C18.2817 9.31328 18.7525 10.6904 18.9559 12.1187C19.0606 12.8917 19.35 13.6281 19.7996 14.2656C19.4934 14.5371 19.2337 14.857 19.0309 15.2124ZM15.0371 10.1218C14.9958 9.73765 14.8979 9.3617 14.7465 9.00619C14.6456 8.7481 14.5265 8.49748 14.3903 8.25619L14.184 7.92807C13.6127 7.10406 13.1139 6.23204 12.6934 5.32182C12.4717 4.80563 12.3021 4.26859 12.1871 3.71869C12.0728 4.27178 11.9032 4.81199 11.6809 5.33119C11.2603 6.24142 10.7616 7.11344 10.1903 7.93744L9.98401 8.26556C9.84773 8.50685 9.72868 8.75748 9.62776 9.01556C9.47654 9.37112 9.37861 9.74705 9.33713 10.1312C9.31785 10.2523 9.31785 10.3757 9.33713 10.4968C9.35801 10.6085 9.41522 10.7102 9.49986 10.7861C9.58451 10.862 9.69184 10.9077 9.80518 10.9163C9.91852 10.9248 10.0315 10.8957 10.1266 10.8334C10.2217 10.7711 10.2935 10.6791 10.3309 10.5718C10.5649 9.97157 10.8536 9.39414 11.1934 8.84682L11.3996 8.51869C11.5028 8.14369 11.6903 7.77806 11.9996 7.75931C12.0524 7.75074 12.1062 7.75074 12.159 7.75931C12.2118 7.75074 12.2656 7.75074 12.3184 7.75931C12.6278 7.75931 12.8153 8.14369 12.9184 8.51869L13.1246 8.84682C13.4645 9.39411 13.7532 9.97155 13.9871 10.5718C14.0245 10.6791 14.0964 10.7711 14.1914 10.8334C14.2865 10.8957 14.3995 10.9248 14.5128 10.9163C14.6262 10.9077 14.7335 10.862 14.8182 10.7861C14.9028 10.7102 14.96 10.6085 14.9809 10.4968C15.02 10.3757 15.039 10.2491 15.0371 10.1218ZM7.18088 21.3718C7.11544 21.1597 7.02078 20.9578 6.89963 20.7718L5.37151 18.2593L4.49963 16.7499L4.21838 16.3093C4.01548 15.9755 3.73175 15.6982 3.39338 15.5031C3.02657 15.2777 2.5934 15.1855 2.16661 15.2418C1.73982 15.2982 1.34542 15.4997 1.04963 15.8124C0.554253 16.3171 0.255086 16.982 0.205884 17.6874C0.128093 18.4056 0.286042 19.1295 0.655885 19.7499L3.38401 24.1187C3.67556 24.6216 4.15407 24.9889 4.71526 25.1406C5.03439 25.2158 5.36769 25.2061 5.68189 25.1123C5.99608 25.0186 6.2802 24.8441 6.50588 24.6062C6.91064 24.1751 7.18867 23.6407 7.30941 23.0618C7.43015 22.4829 7.38892 21.8819 7.19026 21.3249L7.18088 21.3718Z" fill="white"/>
</svg>
