<svg width="40" height="40" viewBox="0 0 40 40" fill="none" xmlns="http://www.w3.org/2000/svg">
<g clip-path="url(#clip0_1_8282)">
<path d="M39.5779 27.4055L35.7879 23.6152L27.9476 31.4555C26.5481 32.855 24.7915 33.7675 22.8835 34.109L27.879 39.1044C28.3364 39.5622 29.0786 39.5622 29.5361 39.1044L39.5779 29.0629C40.0357 28.6052 40.0357 27.863 39.5779 27.4055Z" fill="#20212B"/>
<path d="M34.2437 21.8446C35.5648 20.5238 35.5651 18.3744 34.2456 17.0527C34.244 17.0512 34.2425 17.0496 34.241 17.0481C33.9144 16.7219 33.533 16.4704 33.1176 16.3023C33.4777 15.3913 33.5537 13.8508 32.3608 12.6576C32.3577 12.6545 32.3547 12.6511 32.3513 12.6481C32.0263 12.3252 31.6473 12.0762 31.2347 11.909C31.5948 10.9986 31.6711 9.45778 30.4788 8.26516C30.4779 8.26424 30.4773 8.26363 30.4766 8.26302C30.1498 7.93618 29.768 7.6841 29.3521 7.51595C29.7122 6.605 29.7882 5.06416 28.5952 3.87093C28.5949 3.87093 28.5949 3.87062 28.5946 3.87062C28.5943 3.87032 28.594 3.87001 28.5937 3.86971C27.272 2.54799 25.1217 2.54799 23.8 3.86971L21.578 6.09139L22.7142 7.22756C24.6075 9.12087 24.6075 12.2013 22.7145 14.0946C22.0773 14.7315 21.2945 15.1692 20.4412 15.3776C20.2371 16.2095 19.811 16.9981 19.1619 17.6469C18.5256 18.2832 17.7441 18.7205 16.8917 18.9292C16.6833 19.7813 16.2457 20.5631 15.6097 21.1991C14.9734 21.8354 14.1918 22.2727 13.3395 22.4815C13.1311 23.3335 12.6934 24.1154 12.0574 24.7517C11.1404 25.6684 9.9209 26.1738 8.62391 26.1738C7.32691 26.1738 6.10743 25.6687 5.19037 24.7514L4.0542 23.6152L0.264221 27.4055C-0.193543 27.8633 -0.193543 28.6051 0.264221 29.0629L10.3057 39.1044C10.7635 39.5622 11.5054 39.5619 11.9631 39.1044L19.1513 31.9166H21.1764C23.1082 31.9166 24.9243 31.164 26.2902 29.7984L34.2437 21.8446Z" fill="#20212B"/>
<path d="M6.84854 23.0943C7.82938 24.0755 9.41996 24.0755 10.4008 23.0943C11.3819 22.1135 11.3819 20.5232 10.4008 19.5421C11.3819 20.5232 12.9722 20.5232 13.9533 19.5421C14.9342 18.5613 14.9342 16.9707 13.9533 15.9898C14.9342 16.9707 16.5248 16.9707 17.5056 15.9898C18.4864 15.009 18.4864 13.4184 17.5056 12.4376C18.4864 13.4184 20.077 13.4184 21.0578 12.4376C22.039 11.4565 22.039 9.86619 21.0578 8.88504L16.0493 3.8765C15.0685 2.89566 13.4779 2.89566 12.497 3.8765C11.5162 4.85733 11.5162 6.44791 12.497 7.42874L13.1245 8.05649C12.1437 7.07535 10.5531 7.07535 9.57224 8.05649C8.5914 9.03733 8.5914 10.6279 9.57224 11.6087L10.8274 12.8639C9.84659 11.8831 8.25602 11.8831 7.27518 12.8639C6.29404 13.8448 6.29404 15.4353 7.27518 16.4162L8.53037 17.6717C7.54923 16.6905 5.95896 16.6905 4.97781 17.6717C3.99698 18.6525 3.99698 20.2428 4.97781 21.2239L6.84854 23.0943Z" fill="#20212B"/>
<path d="M22.1429 2.21223C22.3162 2.03889 22.4996 1.87959 22.6904 1.73158L22.0049 1.04615C21.6485 0.689404 21.1032 0.601208 20.6524 0.826428L17.7599 2.27266L19.9212 4.43422L22.1429 2.21223Z" fill="#20212B"/>
</g>
<defs>
<clipPath id="clip0_1_8282">
<rect width="40" height="40" fill="white" transform="translate(0 -0.000244141)"/>
</clipPath>
</defs>
</svg>
