<svg width="39" height="39" viewBox="0 0 39 39" fill="none" xmlns="http://www.w3.org/2000/svg">
<path d="M4.30706 23.8646C3.3019 22.2381 2.7706 20.368 2.7706 18.456V10.653C2.7706 9.88923 2.14927 9.26782 1.38541 9.26782C0.621715 9.26782 0.000305176 9.88916 0.000305176 10.653V23.5114C0.000305176 24.9986 0.413614 26.4534 1.19544 27.7186C1.97742 28.9836 3.0938 30.0039 4.42406 30.6691L5.05568 30.9849V38.9998H7.82582V27.3139C6.39333 26.4679 5.18578 25.2865 4.30706 23.8646Z" fill="#20212B"/>
<path d="M28.0478 14.4108V7.70396C28.0478 6.94026 27.4265 6.31885 26.6626 6.31885C25.8989 6.31885 25.2775 6.94018 25.2775 7.70396V15.0869L25.3988 15.0033C26.2053 14.4552 27.1529 14.2707 28.0478 14.4108Z" fill="#20212B"/>
<path d="M36.7963 23.2108L33.1027 25.7607V10.2318C33.1027 9.46809 32.4814 8.84668 31.7176 8.84668C30.9538 8.84668 30.3325 9.46801 30.3325 10.2318V15.7137C30.4032 15.7999 30.4713 15.8894 30.5351 15.9834C31.6811 17.6698 31.2414 19.9742 29.5551 21.1203L28.1945 22.0448C27.2653 22.6764 26.4798 23.47 25.86 24.4036C25.2546 25.3156 24.4798 26.089 23.5945 26.6703L23.5754 38.9998H31.4024L31.423 31.6495L32.0293 31.3287C32.8323 30.9038 33.5369 30.2573 34.0669 29.4589C34.8514 28.2772 35.8453 27.273 37.0208 26.474L38.3815 25.5493C39.0257 25.1115 39.1936 24.2312 38.7558 23.5869C38.3188 22.9439 37.4403 22.7753 36.7963 23.2108Z" fill="#20212B"/>
<path d="M26.9101 20.1548L28.2707 19.2301C28.9149 18.7923 29.0829 17.912 28.6451 17.2677C28.2081 16.6246 27.3302 16.4562 26.6861 16.8911L22.9919 19.4413V16.3403V3.91255C22.9919 3.14878 22.3706 2.52737 21.6068 2.52737C20.8431 2.52737 20.2217 3.1487 20.2217 3.91255V11.2849H17.9366V1.38487C17.9366 0.62109 17.3153 -0.000244141 16.5515 -0.000244141C15.7878 -0.000244141 15.1664 0.62109 15.1664 1.38487V10.0212H12.8813V1.38487C12.8813 0.62109 12.2599 -0.000244141 11.4962 -0.000244141C10.7325 -0.000244141 10.1111 0.62109 10.1111 1.38487V11.285H7.8259V5.59763C7.8259 4.83393 7.20456 4.21252 6.44079 4.21252C5.67701 4.21252 5.05576 4.83393 5.05576 5.59763V18.456C5.05576 19.9432 5.46906 21.3981 6.25089 22.6632C7.0328 23.9283 8.14917 24.9486 9.47944 25.6138L10.1111 25.9296V38.9998H21.2903L21.3114 25.3306L21.9186 25.0093C22.7217 24.5845 23.4263 23.938 23.9562 23.1396C24.7407 21.9579 25.7344 20.9536 26.9101 20.1548Z" fill="#20212B"/>
</svg>
