<svg width="37" height="25" viewBox="0 0 37 25" fill="none" xmlns="http://www.w3.org/2000/svg">
<g clip-path="url(#clip0_1_8354)">
<path d="M33.9941 15.9636C33.7629 15.905 33.5895 15.8464 33.416 15.7878L31.0457 17.9558C30.9301 18.073 30.8145 18.1316 30.641 18.1316C30.4676 18.1316 30.352 18.073 30.2363 17.9558L27.866 15.7878C27.6926 15.8464 27.4613 15.905 27.2879 15.9636C26.9988 16.0222 26.7098 16.1394 26.4785 16.2566C27.577 17.1355 28.1551 18.4832 28.3863 19.5378C31.277 19.7136 34.1676 19.5964 37.0004 19.0105C36.827 16.9011 35.3816 16.4324 33.9941 15.9636Z" fill="white"/>
<path d="M31.8551 14.3816L31.7395 14.4402C31.3926 14.616 30.9879 14.6746 30.641 14.6746C30.2941 14.6746 29.8895 14.5574 29.5426 14.3816L29.427 14.323L29.3691 14.4402C29.2535 14.7332 29.0801 14.9089 28.9066 15.0847L28.791 15.2019L30.641 16.9011L32.491 15.2019L32.3754 15.0847C32.202 14.9089 32.0285 14.7332 31.9129 14.4402L31.8551 14.3816Z" fill="white"/>
<path d="M32.9531 9.34253H32.8375C31.1031 9.22534 29.6578 8.52222 28.9641 8.11206L28.9062 8.05347L28.4437 8.46362V8.52222C28.3859 8.81519 28.3859 9.16675 28.3859 9.51831C28.3859 10.9246 28.7328 12.155 29.3687 12.9753L29.4266 13.0339L29.5422 13.2097L29.6 13.2683C29.9469 13.5613 30.2937 13.7371 30.6984 13.7371C31.1031 13.7371 31.45 13.5613 31.7969 13.2683L31.8547 13.2097C31.9125 13.1511 31.9125 13.0925 31.9703 13.0339C31.9703 13.0339 31.9703 12.9753 32.0281 12.9753C32.6062 12.2136 32.9531 10.9246 32.9531 9.5769V9.34253Z" fill="white"/>
<path d="M28.0969 12.6238C27.6922 11.7449 27.4609 10.6902 27.4609 9.51831C27.4609 9.04956 27.5188 8.58081 27.5766 8.17065C27.5766 8.05347 27.6344 7.99487 27.6922 7.93628L28.5594 7.11597C28.6172 7.05737 28.7328 6.99878 28.8484 6.99878C28.9063 6.99878 29.0219 6.99878 29.0797 7.05737C29.2531 7.17456 31.1031 8.40503 33.3 8.40503H33.4156C33.6469 8.40503 33.8203 8.58081 33.8203 8.81519V9.51831C33.8203 10.6902 33.5891 11.7449 33.1844 12.6238L33.0688 12.9167H34.6875V9.34253C34.6875 8.22925 34.2828 7.23315 33.4734 6.47144C32.7219 5.70972 31.6813 5.29956 30.6406 5.29956C28.3859 5.29956 26.5938 7.11597 26.5938 9.40112V12.9167H28.2125L28.0969 12.6238Z" fill="white"/>
<path d="M17.2285 5.76831C17.5176 5.76831 17.7488 5.70972 18.0379 5.65112C18.327 5.59253 18.616 5.47534 18.8473 5.35815C19.3676 5.18237 19.9457 4.948 20.5816 4.948C20.8129 4.948 20.9863 4.948 21.2176 5.00659L21.7957 5.12378L21.3332 4.71362L21.2754 4.65503C20.6973 4.0105 19.8301 3.65894 18.8473 3.65894H18.0957C17.1129 3.65894 16.3035 4.0105 15.6676 4.65503C15.552 4.77222 15.4363 4.948 15.3207 5.12378L15.2051 5.29956L15.3785 5.35815C15.841 5.53394 16.477 5.76831 17.2285 5.76831Z" fill="white"/>
<path d="M15.0886 10.6316C15.2621 10.6902 15.3777 10.8074 15.4355 10.9832C15.898 12.9753 17.1121 14.323 18.4418 14.323C19.7714 14.323 20.9855 12.9753 21.448 10.9832C21.5058 10.8074 21.6214 10.6316 21.8527 10.6316C22.0261 10.5144 22.4308 9.92847 22.5464 9.22534C22.5464 9.10815 22.6621 8.6394 22.4886 8.46362C22.4308 8.40503 22.373 8.34644 22.3152 8.34644C22.3152 8.34644 22.2574 8.34644 22.1996 8.34644C22.0839 8.22925 21.9683 7.99487 21.9683 7.7605L22.0261 6.70581C22.0261 6.64722 22.0261 6.53003 22.0261 6.47144V6.29565L21.9683 6.23706C21.5058 5.8855 21.0433 5.70972 20.5808 5.70972C20.1183 5.70972 19.6558 5.8855 19.1355 6.06128C18.8464 6.17847 18.5574 6.29565 18.2683 6.35425C17.9214 6.47143 17.5746 6.47144 17.2277 6.47144C16.5917 6.47144 15.898 6.29565 15.2043 6.00269H15.0308V6.17847C15.0308 6.35425 14.973 6.53003 15.0308 6.70581L15.0886 7.7605C15.0886 7.99487 14.973 8.17065 14.6839 8.22925H14.6261C14.3949 8.28784 14.3371 8.58081 14.3949 9.10815C14.5105 9.86987 14.8574 10.5144 15.0886 10.6316Z" fill="white"/>
<path d="M20.4656 14.5574L20.4078 14.616C19.8297 15.0847 19.1359 15.2605 18.5 15.2605C17.8641 15.2605 17.1703 15.0261 16.5922 14.616L16.5344 14.5574L16.4766 14.616C16.3031 14.7332 16.1297 14.7917 15.9563 14.9089L15.8406 14.9675L15.9563 15.0847C16.5922 15.905 17.575 16.3738 18.5578 16.3738C19.5406 16.3738 20.4656 15.905 21.1594 15.0847L21.275 14.9675L21.1594 14.9089C20.9859 14.7917 20.8125 14.6746 20.6391 14.616L20.4656 14.5574Z" fill="white"/>
<path d="M5.83867 6.94018C6.06992 6.94018 6.24336 6.94019 6.4168 6.88159C6.64805 6.823 6.82148 6.7644 7.05273 6.64722C7.45742 6.47143 7.91992 6.29565 8.49805 6.29565H8.61367H9.1918L8.7293 5.94409C8.32461 5.59253 7.74648 5.41675 7.16836 5.41675H6.59023C5.83867 5.41675 5.20273 5.65112 4.74023 6.17847C4.68242 6.23706 4.68242 6.23706 4.62461 6.29565L4.45117 6.53003L4.62461 6.70581C5.0293 6.88159 5.43398 6.94018 5.83867 6.94018Z" fill="white"/>
<path d="M4.22047 10.573C4.39391 10.6316 4.50953 10.7488 4.56735 10.9246C4.91422 12.448 5.83922 13.5027 6.87985 13.5027C7.86266 13.5027 8.78766 12.448 9.19235 10.9246C9.25016 10.7488 9.36578 10.6316 9.59703 10.573C9.77047 10.4558 10.0017 10.0457 10.0595 9.5769C10.1173 9.28394 10.0595 9.10815 9.94391 8.99097H9.8861C9.65485 8.93237 9.53922 8.75659 9.53922 8.52222L9.59703 7.7019C9.59703 7.64331 9.59703 7.58472 9.59703 7.58472V7.46753L9.53922 7.40894C9.19235 7.17456 8.90328 7.05737 8.55641 7.05737C8.20953 7.05737 7.86266 7.17456 7.45797 7.35034C7.22672 7.46753 6.99547 7.52612 6.76422 7.58472C6.47516 7.64331 6.1861 7.7019 5.95485 7.7019C5.49235 7.7019 4.97203 7.58472 4.50953 7.40894L4.3361 7.35034V7.52612V7.7605L4.39391 8.58081C4.39391 8.81519 4.27828 8.99097 4.04703 9.04956H3.98922H3.93141V9.10815C3.93141 9.16675 3.8736 9.34253 3.93141 9.6355C3.75797 10.0457 4.04703 10.4558 4.22047 10.573Z" fill="white"/>
<path d="M8.44061 13.9714L8.3828 13.9128L8.32499 13.9714C7.86249 14.323 7.34218 14.5574 6.82186 14.5574C6.30155 14.5574 5.78124 14.3816 5.31874 13.9714L5.26093 13.9128L5.20311 13.9714C5.02968 14.0886 4.79843 14.2644 4.56718 14.3816L4.39374 14.4988L4.50936 14.616C5.20311 15.2605 5.95468 15.6121 6.82186 15.6121C7.63124 15.6121 8.49843 15.2605 9.13436 14.616L9.24999 14.4988L9.07655 14.3816C8.90311 14.2644 8.67186 14.0886 8.44061 13.9714Z" fill="white"/>
<path d="M11.7359 15.6121C11.2156 15.4363 10.6953 15.2605 10.2328 15.0261C9.30781 15.9636 8.15156 16.491 6.87969 16.491C5.60781 16.491 4.45156 15.9636 3.52656 15.0261C3.00625 15.2605 2.48594 15.4949 1.96563 15.6707C0.4625 16.0808 0.115625 17.8972 0 18.7761C2.89062 19.5378 5.78125 19.8308 8.61406 19.5964C8.96094 18.1316 9.77031 16.3152 11.7359 15.6121Z" fill="white"/>
<path d="M24.8016 16.7253C23.8766 16.4324 22.9516 16.0222 22.0844 15.5535C21.2172 16.7253 19.8875 17.4285 18.5 17.4285C17.1125 17.4285 15.7828 16.7253 14.9156 15.5535C14.3953 15.8464 13.875 16.0808 13.2969 16.3152C12.95 16.491 12.5453 16.6082 12.1984 16.7253C10.1172 17.3699 9.71249 19.948 9.59686 21.0027C15.4937 22.5847 21.4484 22.5847 27.3453 21.0027C27.2875 19.948 26.825 17.3699 24.8016 16.7253Z" fill="white"/>
</g>
<defs>
<clipPath id="clip0_1_8354">
<rect width="37" height="25" fill="white"/>
</clipPath>
</defs>
</svg>
