<svg width="30" height="30" viewBox="0 0 30 30" fill="none" xmlns="http://www.w3.org/2000/svg">
<path d="M28.1624 15.0966L28.1513 15.0635H1.84947L1.8384 15.0966C1.76657 15.3288 1.7334 15.5665 1.7334 15.8098V26.3736C1.7334 27.7611 2.86109 28.8888 4.2486 28.8888H25.7522C27.1397 28.8888 28.2674 27.7611 28.2674 26.3736V15.8098C28.2674 15.5665 28.2342 15.3288 28.1624 15.0966ZM23.9059 23.571C23.9059 24.4499 23.1928 25.163 22.3138 25.163H7.69248C6.81353 25.163 6.0949 24.4499 6.0949 23.571V20.3869C6.0949 19.5024 6.81353 18.7893 7.69248 18.7893H22.3138C23.1928 18.7893 23.9059 19.5024 23.9059 20.3869V23.571Z" fill="white"/>
<path d="M26.4101 9.25357C25.9292 7.88819 24.6412 6.97607 23.1984 6.97607H21.5898C21.5787 8.11482 21.2636 9.21487 20.6943 10.1933H21.8717C22.0984 10.1933 22.2863 10.3813 22.2863 10.6079C22.2863 10.8346 22.0984 11.0225 21.8717 11.0225H8.13483C7.9082 11.0225 7.72023 10.8346 7.72023 10.6079C7.72023 10.3813 7.9082 10.1933 8.13483 10.1933H9.31228C8.74292 9.21487 8.42782 8.11482 8.41676 6.97607H6.80815C5.35983 6.97607 4.07182 7.8882 3.59642 9.25357L1.84958 14.2398H28.157L26.4101 9.25357Z" fill="white"/>
<path d="M15.0004 1.11108C11.8219 1.11108 9.2403 3.69258 9.2403 6.87113C9.2403 8.10938 9.63279 9.2537 10.2961 10.1934H14.5857C14.5857 10.1934 14.5857 10.1935 14.5857 10.1934L14.5857 10.1256C13.7619 9.93575 13.1443 9.20002 13.1443 8.31945C13.1443 8.09056 13.33 7.90486 13.5589 7.90486C13.7878 7.90486 13.9735 8.09056 13.9735 8.31945C13.9735 8.88628 14.4348 9.3473 15.0016 9.3473C15.5695 9.3473 16.0316 8.88628 16.0316 8.31945C16.0316 7.75154 15.5695 7.28944 15.0016 7.28944C13.9776 7.28944 13.1443 6.45594 13.1443 5.43187C13.1443 4.55032 13.7626 3.81331 14.587 3.62372V3.21584C14.587 2.98695 14.7727 2.80125 15.0016 2.80125C15.2305 2.80125 15.4162 2.98695 15.4162 3.21584V3.62358C16.2417 3.81303 16.8608 4.55018 16.8608 5.43187C16.8608 5.66076 16.6751 5.84646 16.4462 5.84646C16.2173 5.84646 16.0316 5.66076 16.0316 5.43187C16.0316 4.86396 15.5695 4.4024 15.0016 4.4024C14.4348 4.4024 13.9735 4.86396 13.9735 5.43187C13.9735 5.99869 14.4348 6.46026 15.0016 6.46026C16.0268 6.46026 16.8608 7.2943 16.8608 8.31945C16.8608 9.20117 16.2411 9.93788 15.4149 10.1266V10.1932C15.4149 10.1932 15.4149 10.1933 15.4149 10.1932L19.7102 10.1934C20.3735 9.2537 20.766 8.10938 20.766 6.87113C20.766 3.69258 18.1845 1.11108 15.0004 1.11108Z" fill="white"/>
</svg>
